<svg width="113" height="16" viewBox="0 0 113 16" fill="none" xmlns="http://www.w3.org/2000/svg">
<path fill-rule="evenodd" clip-rule="evenodd" d="M15.2071 0.353539L14.8535 -1.44839e-05L14.5 0.353539L-3.77595e-05 14.8535L0.707069 15.5606L14.8535 1.4142L29 15.5606L29.3598 15.9205L29.7132 15.5544L43.7132 1.05439L42.9938 0.359795L29.3473 14.4937L15.2071 0.353539ZM52.7071 0.353539L52.3535 -1.44839e-05L52 0.353539L37.5 14.8535L38.2071 15.5606L52.3535 1.4142L66.5 15.5606L67.2071 14.8535L52.7071 0.353539ZM74.8535 15.9142L74.5 15.5606L60 1.06065L60.7071 0.353539L74.8535 14.5L89 0.353539L89.7071 1.06065L75.2071 15.5606L74.8535 15.9142ZM98.2071 0.353539L97.8535 -1.44839e-05L97.5 0.353539L83 14.8535L83.7071 15.5606L97.8535 1.4142L112 15.5606L112.707 14.8535L98.2071 0.353539Z" fill="white"/>
</svg>
